<?xml version="1.0" ?><!DOCTYPE svg  PUBLIC '-//W3C//DTD SVG 1.1//EN'  'http://www.w3.org/Graphics/SVG/1.1/DTD/svg11.dtd'><svg height="30px" style="enable-background:new 0 0 512 512;" version="1.1" viewBox="0 0 512 512" width="30px" xml:space="preserve" xmlns="http://www.w3.org/2000/svg" xmlns:xlink="http://www.w3.org/1999/xlink"><g id="youtube__x2C_"><g><path d="M492.871,374.968c0,65.432-53.089,118.482-118.585,118.482H137.149    c-65.477,0-118.546-53.051-118.546-118.482V138.009c0-65.451,53.069-118.483,118.546-118.483h237.137    c65.496,0,118.585,53.032,118.585,118.483V374.968z" style="fill:#FF4D3F;"/><path d="M335.016,307.724c2.295,0,3.994,0.714,4.998,2.121c1.043,1.351,1.582,3.664,1.582,6.885v7.733    h-13.257v-7.733c0-3.221,0.501-5.534,1.563-6.885C330.925,308.438,332.642,307.724,335.016,307.724 M335.016,297.847    c-7.322,0-11.249,3.712-12.99,6.036c-2.397,3.132-3.563,7.336-3.563,12.847v7.733c0,5.455,4.422,9.877,9.877,9.877h13.257    c5.455,0,9.877-4.422,9.877-9.877v-7.733c0-5.436-1.154-9.615-3.527-12.771C345.058,300.016,340.474,297.847,335.016,297.847    L335.016,297.847z M283.315,307.473c2.026,0,3.59,0.675,4.69,1.986c1.041,1.35,1.563,3.298,1.563,5.902v39.569    c0,2.47-0.444,4.205-1.294,5.284c-0.867,1.1-2.22,1.64-4.052,1.64c-1.274,0-2.471-0.289-3.629-0.81    c-1.157-0.56-2.334-1.505-3.55-2.739v-47.747c1.022-1.062,2.046-1.852,3.086-2.353    C281.174,307.704,282.256,307.473,283.315,307.473 M283.315,297.596c-2.597,0-5.109,0.575-7.468,1.71    c-2.107,1.016-4.042,2.454-5.916,4.401c-1.773,1.84-2.764,4.296-2.764,6.852v47.747c0,2.594,1.021,5.083,2.84,6.931    c2.102,2.134,4.158,3.671,6.287,4.7c0.083,0.041,0.167,0.08,0.251,0.117c2.477,1.113,5.061,1.678,7.678,1.678    c4.867,0,9.061-1.918,11.808-5.4c2.3-2.921,3.415-6.648,3.415-11.4v-39.569c0-4.806-1.218-8.821-3.62-11.935    c-0.082-0.107-0.167-0.213-0.254-0.316C292.588,299.554,288.235,297.596,283.315,297.596L283.315,297.596z M349.796,246.618    c29.913,0,54.151,27.648,54.151,58.195v44.45c0,30.565-24.238,55.325-54.151,55.325H161.677c-29.912,0-54.15-24.76-54.15-55.325    v-44.45c0-30.547,24.238-58.195,54.15-58.195H349.796 M261.896,372.866h15.149v-5.862c1.968,2.371,4.129,4.088,6.407,5.188    c2.295,1.118,4.9,1.658,7.854,1.658c4.438,0,7.853-1.428,10.189-4.319c2.354-2.912,3.531-7.078,3.531-12.478v-42.541    c0-6.286-1.255-11.049-3.763-14.328c-2.491-3.259-6.117-4.879-10.864-4.879c-2.337,0-4.633,0.579-6.928,1.832    c-2.239,1.195-4.381,2.989-6.427,5.304v-33.459h-15.149V372.866 M149.345,284.101h17.465v88.766h16.904v-88.766h17.489v-15.119    h-51.858V284.101 M334.552,374.968c7.469,0,13.083-1.968,16.81-5.921c3.8-3.991,5.653-9.911,5.653-17.761v-3.934h-15.419v3.491    c0,4.492-0.521,7.404-1.486,8.735c-1.004,1.33-2.721,1.986-5.209,1.986c-2.413,0-4.112-0.753-5.096-2.334    c-0.984-1.562-1.466-4.358-1.466-8.388V336.4h28.676v-19.556c0-7.27-1.834-12.823-5.52-16.699    c-3.687-3.876-8.954-5.824-15.823-5.824c-6.734,0-12.178,2.082-16.404,6.267c-4.264,4.186-6.388,9.643-6.388,16.257v34.441    c0,7.387,1.95,13.19,5.789,17.356C322.51,372.866,327.816,374.968,334.552,374.968 M226.792,360.177    c-1.409,0-2.431-0.385-3.088-1.234c-0.598-0.79-0.926-2.102-0.926-3.914V296.23h-14.995v64.062c0,4.609,0.906,8.004,2.644,10.279    c1.757,2.295,4.342,3.432,7.815,3.432c2.837,0,5.732-0.79,8.723-2.448c3.011-1.601,5.868-3.973,8.646-7.078v8.39h14.993V296.23    h-14.993v58.22c-1.39,1.658-2.954,3.027-4.632,4.106C229.282,359.637,227.873,360.177,226.792,360.177 M349.796,236.741H161.677    c-17.113,0-33.303,7.408-45.586,20.859c-11.72,12.835-18.441,30.043-18.441,47.213v44.45c0,35.952,28.723,65.202,64.027,65.202    h188.119c35.306,0,64.028-29.25,64.028-65.202v-44.45c0-17.17-6.722-34.379-18.441-47.213    C383.1,244.148,366.909,236.741,349.796,236.741L349.796,236.741z M322.757,328.251v-11.406c0-5.235,1.958-7.763,3.43-9.208    c1.508-1.493,4.096-3.438,9.485-3.438c6.047,0,8.019,2.073,8.666,2.754c1.857,1.953,2.8,5.282,2.8,9.893v9.679h-18.799    C326.268,326.523,324.345,327.161,322.757,328.251L322.757,328.251z M277.043,312.318c2.777,0,5.49-1.173,7.402-3.336    c1.279-1.448,2.552-2.531,3.678-3.132c0.027-0.015,0.055-0.03,0.082-0.045c1.013-0.553,1.705-0.624,2.194-0.624    c2.253,0,2.731,0.626,3.018,1.001c0.521,0.682,1.732,2.855,1.732,8.329v42.541c0,4.167-0.934,5.771-1.335,6.268    c-0.131,0.162-0.527,0.652-2.509,0.652c-1.462,0-2.615-0.216-3.527-0.66c-1.076-0.52-2.119-1.395-3.133-2.616    c-1.913-2.306-4.72-3.57-7.603-3.57c-1.122,0-2.255,0.191-3.351,0.588c-0.683,0.245-1.324,0.562-1.92,0.938v-47.858    c0.554,0.35,1.146,0.646,1.775,0.885C274.687,312.109,275.871,312.318,277.043,312.318L277.043,312.318z M227.449,108.389    l-22.136,66.974v47.497h-19.013v-45.337l-22.617-69.134h19.124l12.356,45.761h1.196l11.752-45.761H227.449 M227.449,98.512    h-19.337c-4.509,0-8.445,3.053-9.566,7.42l-3.008,11.712l-3.194-11.83c-1.164-4.309-5.072-7.302-9.536-7.302h-19.124    c-3.165,0-6.139,1.517-7.997,4.08s-2.375,5.86-1.391,8.869l22.127,67.638v43.762c0,5.455,4.422,9.877,9.877,9.877h19.013    c5.455,0,9.877-4.422,9.877-9.877v-45.907l21.637-65.464c0.995-3.01,0.484-6.315-1.373-8.885    C233.598,100.034,230.62,98.512,227.449,98.512L227.449,98.512z M253.945,136.292c7.005,0,12.717,2.045,17.195,6.114    c4.438,4.088,6.677,9.372,6.677,15.813v43.602c0,7.231-2.2,12.862-6.542,16.989c-4.4,4.127-10.422,6.171-18.083,6.171    c-7.39,0-13.296-2.121-17.753-6.364c-4.399-4.262-6.619-9.951-6.619-17.125v-43.756c0-6.576,2.277-11.763,6.793-15.639    C240.167,138.241,246.283,136.292,253.945,136.292 M253.134,210.364c2.277,0,4.111-0.637,5.461-1.929    c1.331-1.311,2.027-3.086,2.027-5.342v-46.012c0-1.833-0.696-3.317-2.086-4.474c-1.369-1.138-3.165-1.697-5.403-1.697    c-2.065,0-3.725,0.559-5.037,1.697c-1.255,1.157-1.911,2.642-1.911,4.474v46.012c0,2.314,0.598,4.088,1.795,5.361    C249.178,209.747,250.896,210.364,253.134,210.364 M253.945,126.416c-10.019,0-18.334,2.74-24.716,8.145    c-0.017,0.014-0.033,0.028-0.049,0.042c-6.698,5.749-10.238,13.748-10.238,23.134v43.756c0,9.884,3.238,18.033,9.624,24.219    c0.021,0.02,0.042,0.04,0.063,0.06c6.334,6.029,14.599,9.086,24.563,9.086c10.226,0,18.583-2.976,24.84-8.843    c0.016-0.015,0.032-0.03,0.048-0.045c6.38-6.064,9.614-14.188,9.614-24.148v-43.602c0-9.154-3.41-17.134-9.861-23.077    c-0.017-0.015-0.033-0.03-0.05-0.045C271.443,129.336,263.423,126.416,253.945,126.416L253.945,126.416z M339.685,138.434v84.426    h-16.886v-9.353c-3.087,3.433-6.33,6.075-9.727,7.868c-3.357,1.793-6.598,2.7-9.782,2.7c-3.919,0-6.832-1.273-8.82-3.799    c-1.968-2.488-2.972-6.248-2.972-11.282v-70.561h16.866v64.718c0,1.986,0.386,3.433,1.082,4.32    c0.693,0.925,1.851,1.369,3.434,1.369c1.235,0,2.798-0.598,4.729-1.774c1.89-1.215,3.626-2.719,5.189-4.551v-64.082H339.685     M339.685,128.557h-16.886c-2.848,0-5.415,1.206-7.217,3.134c-1.803-1.928-4.37-3.134-7.218-3.134h-16.866    c-5.455,0-9.877,4.422-9.877,9.877v70.561c0,7.272,1.717,13.129,5.102,17.409c2.703,3.434,7.785,7.548,16.567,7.548    c4.435,0,8.937-1.12,13.398-3.331c1.682,1.325,3.804,2.116,6.11,2.116h16.886c5.455,0,9.877-4.422,9.877-9.877v-84.426    C349.562,132.979,345.14,128.557,339.685,128.557L339.685,128.557z M364.039,478.061H147.415    c-62.448,0-113.253-50.818-113.253-113.283V148.179c0-62.454,50.805-113.263,113.253-113.263h216.624    c62.459,0,113.272,50.81,113.272,113.263v216.599C477.312,427.242,426.498,478.061,364.039,478.061z M147.415,44.818    c-56.988,0-103.351,46.367-103.351,103.36v216.599c0,57.004,46.363,103.381,103.351,103.381h216.624    c56.998,0,103.37-46.377,103.37-103.381V148.179c0-56.993-46.372-103.36-103.37-103.36H147.415z" style="fill:#802720;"/><path d="M335.016,307.724c-2.374,0-4.091,0.714-5.114,2.121c-1.062,1.351-1.563,3.664-1.563,6.885v7.733    h13.257v-7.733c0-3.221-0.539-5.534-1.582-6.885C339.01,308.438,337.311,307.724,335.016,307.724z" style="fill:#FFFFFF;"/><path d="M283.315,307.473c-1.06,0-2.142,0.231-3.185,0.733c-1.04,0.501-2.063,1.291-3.086,2.353v47.747    c1.216,1.234,2.393,2.18,3.55,2.739c1.158,0.521,2.354,0.81,3.629,0.81c1.832,0,3.185-0.54,4.052-1.64    c0.85-1.079,1.294-2.814,1.294-5.284v-39.569c0-2.604-0.522-4.553-1.563-5.902C286.905,308.147,285.342,307.473,283.315,307.473z" style="fill:#FFFFFF;"/><path d="M349.796,246.618H161.677c-29.912,0-54.15,27.648-54.15,58.195v44.45    c0,30.565,24.238,55.325,54.15,55.325h188.119c29.913,0,54.151-24.76,54.151-55.325v-44.45    C403.947,274.266,379.709,246.618,349.796,246.618z M201.204,284.101h-17.489v88.766h-16.904v-88.766h-17.465v-15.119h51.858    V284.101z M250.605,372.866h-14.993v-8.39c-2.779,3.105-5.636,5.478-8.646,7.078c-2.99,1.658-5.885,2.448-8.723,2.448    c-3.474,0-6.059-1.137-7.815-3.432c-1.737-2.275-2.644-5.67-2.644-10.279V296.23h14.995v58.798c0,1.813,0.328,3.124,0.926,3.914    c0.657,0.85,1.679,1.234,3.088,1.234c1.081,0,2.489-0.54,4.188-1.62c1.679-1.079,3.243-2.448,4.632-4.106v-58.22h14.993V372.866z     M305.026,357.053c0,5.399-1.177,9.565-3.531,12.478c-2.337,2.892-5.751,4.319-10.189,4.319c-2.953,0-5.559-0.54-7.854-1.658    c-2.278-1.1-4.439-2.816-6.407-5.188v5.862h-15.149V268.981h15.149v33.459c2.046-2.314,4.188-4.108,6.427-5.304    c2.295-1.253,4.591-1.832,6.928-1.832c4.747,0,8.373,1.62,10.864,4.879c2.508,3.279,3.763,8.042,3.763,14.328V357.053z     M357.015,336.4h-28.676v14.443c0,4.029,0.481,6.826,1.466,8.388c0.983,1.581,2.683,2.334,5.096,2.334    c2.488,0,4.205-0.656,5.209-1.986c0.965-1.331,1.486-4.243,1.486-8.735v-3.491h15.419v3.934c0,7.85-1.854,13.77-5.653,17.761    c-3.727,3.953-9.341,5.921-16.81,5.921c-6.735,0-12.042-2.102-15.883-6.325c-3.839-4.166-5.789-9.97-5.789-17.356v-34.441    c0-6.614,2.124-12.071,6.388-16.257c4.227-4.185,9.67-6.267,16.404-6.267c6.869,0,12.137,1.948,15.823,5.824    c3.686,3.876,5.52,9.43,5.52,16.699V336.4z" style="fill:#FFFFFF;"/><polygon points="163.684,108.389 186.301,177.523 186.301,222.86 205.313,222.86 205.313,175.363     227.449,108.389 208.112,108.389 196.36,154.15 195.164,154.15 182.808,108.389   " style="fill:#FFFFFF;"/><path d="M235.612,142.098c-4.516,3.876-6.793,9.063-6.793,15.639v43.756c0,7.174,2.22,12.863,6.619,17.125    c4.458,4.243,10.363,6.364,17.753,6.364c7.661,0,13.683-2.044,18.083-6.171c4.342-4.127,6.542-9.758,6.542-16.989v-43.602    c0-6.441-2.239-11.725-6.677-15.813c-4.478-4.069-10.189-6.114-17.195-6.114C246.283,136.292,240.167,138.241,235.612,142.098z     M260.623,157.082v46.012c0,2.256-0.696,4.031-2.027,5.342c-1.351,1.292-3.185,1.929-5.461,1.929    c-2.238,0-3.956-0.617-5.152-1.909c-1.197-1.273-1.795-3.047-1.795-5.361v-46.012c0-1.833,0.656-3.317,1.911-4.474    c1.312-1.138,2.972-1.697,5.037-1.697c2.238,0,4.034,0.559,5.403,1.697C259.927,153.764,260.623,155.249,260.623,157.082z" style="fill:#FFFFFF;"/><path d="M339.685,222.86v-84.426h-16.886v64.082c-1.563,1.832-3.3,3.335-5.189,4.551    c-1.932,1.176-3.494,1.774-4.729,1.774c-1.583,0-2.74-0.443-3.434-1.369c-0.696-0.887-1.082-2.333-1.082-4.32v-64.718h-16.866    v70.561c0,5.034,1.004,8.794,2.972,11.282c1.988,2.526,4.901,3.799,8.82,3.799c3.185,0,6.425-0.906,9.782-2.7    c3.396-1.793,6.64-4.436,9.727-7.868v9.353H339.685z" style="fill:#FFFFFF;"/><path d="M335.016,307.724c-2.374,0-4.091,0.714-5.114,2.121c-1.062,1.351-1.563,3.664-1.563,6.885v7.733    h13.257v-7.733c0-3.221-0.539-5.534-1.582-6.885C339.01,308.438,337.311,307.724,335.016,307.724z" style="fill:#FFFFFF;"/><path d="M283.315,307.473c-1.06,0-2.142,0.231-3.185,0.733c-1.04,0.501-2.063,1.291-3.086,2.353v47.747    c1.216,1.234,2.393,2.18,3.55,2.739c1.158,0.521,2.354,0.81,3.629,0.81c1.832,0,3.185-0.54,4.052-1.64    c0.85-1.079,1.294-2.814,1.294-5.284v-39.569c0-2.604-0.522-4.553-1.563-5.902C286.905,308.147,285.342,307.473,283.315,307.473z" style="fill:#FFFFFF;"/><path d="M349.796,246.618H161.677c-29.912,0-54.15,27.648-54.15,58.195v44.45    c0,30.565,24.238,55.325,54.15,55.325h188.119c29.913,0,54.151-24.76,54.151-55.325v-44.45    C403.947,274.266,379.709,246.618,349.796,246.618z M201.204,284.101h-17.489v88.766h-16.904v-88.766h-17.465v-15.119h51.858    V284.101z M250.605,372.866h-14.993v-8.39c-2.779,3.105-5.636,5.478-8.646,7.078c-2.99,1.658-5.885,2.448-8.723,2.448    c-3.474,0-6.059-1.137-7.815-3.432c-1.737-2.275-2.644-5.67-2.644-10.279V296.23h14.995v58.798c0,1.813,0.328,3.124,0.926,3.914    c0.657,0.85,1.679,1.234,3.088,1.234c1.081,0,2.489-0.54,4.188-1.62c1.679-1.079,3.243-2.448,4.632-4.106v-58.22h14.993V372.866z     M305.026,357.053c0,5.399-1.177,9.565-3.531,12.478c-2.337,2.892-5.751,4.319-10.189,4.319c-2.953,0-5.559-0.54-7.854-1.658    c-2.278-1.1-4.439-2.816-6.407-5.188v5.862h-15.149V268.981h15.149v33.459c2.046-2.314,4.188-4.108,6.427-5.304    c2.295-1.253,4.591-1.832,6.928-1.832c4.747,0,8.373,1.62,10.864,4.879c2.508,3.279,3.763,8.042,3.763,14.328V357.053z     M357.015,336.4h-28.676v14.443c0,4.029,0.481,6.826,1.466,8.388c0.983,1.581,2.683,2.334,5.096,2.334    c2.488,0,4.205-0.656,5.209-1.986c0.965-1.331,1.486-4.243,1.486-8.735v-3.491h15.419v3.934c0,7.85-1.854,13.77-5.653,17.761    c-3.727,3.953-9.341,5.921-16.81,5.921c-6.735,0-12.042-2.102-15.883-6.325c-3.839-4.166-5.789-9.97-5.789-17.356v-34.441    c0-6.614,2.124-12.071,6.388-16.257c4.227-4.185,9.67-6.267,16.404-6.267c6.869,0,12.137,1.948,15.823,5.824    c3.686,3.876,5.52,9.43,5.52,16.699V336.4z" style="fill:#FFFFFF;"/><polygon points="163.684,108.389 186.301,177.523 186.301,222.86 205.313,222.86 205.313,175.363     227.449,108.389 208.112,108.389 196.36,154.15 195.164,154.15 182.808,108.389   " style="fill:#FFFFFF;"/><path d="M235.612,142.098c-4.516,3.876-6.793,9.063-6.793,15.639v43.756c0,7.174,2.22,12.863,6.619,17.125    c4.458,4.243,10.363,6.364,17.753,6.364c7.661,0,13.683-2.044,18.083-6.171c4.342-4.127,6.542-9.758,6.542-16.989v-43.602    c0-6.441-2.239-11.725-6.677-15.813c-4.478-4.069-10.189-6.114-17.195-6.114C246.283,136.292,240.167,138.241,235.612,142.098z     M260.623,157.082v46.012c0,2.256-0.696,4.031-2.027,5.342c-1.351,1.292-3.185,1.929-5.461,1.929    c-2.238,0-3.956-0.617-5.152-1.909c-1.197-1.273-1.795-3.047-1.795-5.361v-46.012c0-1.833,0.656-3.317,1.911-4.474    c1.312-1.138,2.972-1.697,5.037-1.697c2.238,0,4.034,0.559,5.403,1.697C259.927,153.764,260.623,155.249,260.623,157.082z" style="fill:#FFFFFF;"/><path d="M339.685,222.86v-84.426h-16.886v64.082c-1.563,1.832-3.3,3.335-5.189,4.551    c-1.932,1.176-3.494,1.774-4.729,1.774c-1.583,0-2.74-0.443-3.434-1.369c-0.696-0.887-1.082-2.333-1.082-4.32v-64.718h-16.866    v70.561c0,5.034,1.004,8.794,2.972,11.282c1.988,2.526,4.901,3.799,8.82,3.799c3.185,0,6.425-0.906,9.782-2.7    c3.396-1.793,6.64-4.436,9.727-7.868v9.353H339.685z" style="fill:#FFFFFF;"/></g></g><g id="Layer_1"/></svg>